<svg width="1000" height="500" viewBox="0 0 1000 500" fill="none" xmlns="http://www.w3.org/2000/svg">
<path d="M252.891 324V230.013C252.891 216.515 246.782 209.766 234.563 209.766H133.116V324H100.509V179.716H241.382C256.585 179.716 267.739 183.552 274.843 191.225C281.947 198.897 285.499 210.69 285.499 226.603V324H252.891ZM339.564 179.716H461.256C473.475 179.716 482.071 182.487 487.044 188.028C492.159 193.569 494.717 201.668 494.717 212.324V230.652C494.717 241.309 492.159 249.407 487.044 254.948C482.071 260.49 473.475 263.26 461.256 263.26H338.711V273.703C338.711 287.201 344.821 293.95 357.04 293.95H491.094V324H350.007C334.804 324 323.65 320.164 316.546 312.491C309.442 304.819 305.89 293.026 305.89 277.113V212.324C305.89 201.668 308.377 193.569 313.35 188.028C318.322 182.487 327.06 179.716 339.564 179.716ZM351.285 206.783C346.739 206.783 343.471 207.919 341.482 210.193C339.635 212.466 338.711 215.805 338.711 220.209V242.587H449.535C454.081 242.587 457.278 241.522 459.125 239.39C461.114 237.117 462.109 233.778 462.109 229.374V220.209C462.109 215.805 461.114 212.466 459.125 210.193C457.278 207.919 454.081 206.783 449.535 206.783H351.285ZM669.141 324L606.27 262.408H549.366V324H516.971V179.716H549.366V237.899H606.909L667.222 179.716H706.65L636.533 248.768L710.486 324H669.141ZM755.23 324C740.028 324 728.874 320.164 721.77 312.491C714.666 304.819 711.114 293.026 711.114 277.113V226.603C711.114 210.69 714.666 198.897 721.77 191.225C728.874 183.552 740.028 179.716 755.23 179.716H855.824C871.027 179.716 882.18 183.552 889.284 191.225C896.388 198.897 899.94 210.69 899.94 226.603V277.113C899.94 293.026 896.388 304.819 889.284 312.491C882.18 320.164 871.027 324 855.824 324H755.23ZM867.333 230.013C867.333 216.515 861.152 209.766 848.791 209.766H762.263C750.044 209.766 743.935 216.515 743.935 230.013V273.703C743.935 287.201 750.044 293.95 762.263 293.95H848.791C861.152 293.95 867.333 287.201 867.333 273.703V230.013Z" fill="black"/>
</svg>
